<svg width="21" height="21" viewBox="0 0 21 21" fill="none" xmlns="http://www.w3.org/2000/svg">
<path d="M9.78671 2.19529C10.0112 1.50431 10.9888 1.5043 11.2133 2.19529L12.689 6.73708C12.7894 7.0461 13.0774 7.25532 13.4023 7.25532H18.1778C18.9044 7.25532 19.2065 8.18503 18.6187 8.61208L14.7552 11.4191C14.4923 11.6101 14.3823 11.9486 14.4827 12.2576L15.9585 16.7994C16.183 17.4904 15.3921 18.065 14.8043 17.6379L10.9408 14.8309C10.678 14.6399 10.322 14.6399 10.0592 14.8309L6.19568 17.6379C5.60789 18.065 4.81703 17.4904 5.04155 16.7994L6.51727 12.2576C6.61767 11.9486 6.50768 11.6101 6.24481 11.4191L2.38133 8.61209C1.79355 8.18503 2.09563 7.25532 2.82217 7.25532H7.5977C7.92262 7.25532 8.21058 7.0461 8.31099 6.73708L9.78671 2.19529Z" fill="#D9A963"/>
</svg>
