<svg width="43" height="43" viewBox="0 0 43 43" fill="none" xmlns="http://www.w3.org/2000/svg">
<path d="M20.4131 3.3452C20.7552 2.29227 22.2448 2.29227 22.5869 3.3452L26.0705 14.0664C26.2235 14.5373 26.6623 14.8561 27.1574 14.8561H38.4304C39.5375 14.8561 39.9978 16.2728 39.1021 16.9236L29.9821 23.5497C29.5815 23.8407 29.4139 24.3565 29.5669 24.8274L33.0505 35.5487C33.3926 36.6016 32.1875 37.4772 31.2918 36.8264L22.1718 30.2003C21.7712 29.9093 21.2288 29.9093 20.8282 30.2003L11.7082 36.8264C10.8125 37.4772 9.60742 36.6016 9.94954 35.5487L13.4331 24.8274C13.5861 24.3565 13.4185 23.8407 13.0179 23.5497L3.89788 16.9236C3.00221 16.2728 3.46252 14.8561 4.56964 14.8561H15.8426C16.3377 14.8561 16.7765 14.5373 16.9295 14.0664L20.4131 3.3452Z" fill="#F2E3CE"/>
</svg>
